<svg width="313" height="86" viewBox="0 0 313 86" fill="none" xmlns="http://www.w3.org/2000/svg">
<path d="M63.1 85.3H12.2L0 75.5V34.4L63.1 85.3Z" fill="#E5E5E5"/>
<path d="M117.9 0V41.1L63.1 85.3H12.2L117.9 0Z" fill="#BB9366"/>
<path d="M155.5 30C154.8 29.2 154.1 28.7 153.4 28.5C152.7 28.2 152.1 28.1 151.4 28.1C150.4 28.1 149.5 28.3 148.7 28.6C147.9 29 147.2 29.4 146.6 30.1C146 30.7 145.6 31.5 145.3 32.3C145 33.1 144.8 34 144.8 35C144.8 36 145 37 145.3 37.9C145.6 38.8 146.1 39.5 146.6 40.2C147.2 40.8 147.9 41.3 148.7 41.7C149.5 42.1 150.4 42.2 151.4 42.2C152.2 42.2 152.9 42 153.7 41.6C154.4 41.2 155.1 40.6 155.8 39.8L158.6 41.8C157.7 43 156.7 43.9 155.4 44.4C154.1 44.9 152.8 45.2 151.4 45.2C149.9 45.2 148.5 45 147.3 44.5C146.1 44 145 43.3 144.1 42.5C143.2 41.6 142.5 40.6 142 39.3C141.5 38.1 141.2 36.7 141.2 35.2C141.2 33.7 141.5 32.3 142 31C142.5 29.7 143.2 28.7 144.1 27.8C145 26.9 146.1 26.2 147.3 25.7C148.5 25.2 149.9 25 151.4 25C152.7 25 153.9 25.2 155 25.7C156.1 26.2 157.2 26.9 158.1 28.1L155.5 30Z" fill="#BB9366"/>
<path d="M165.3 35.2C165.3 33.7 165.6 32.3 166.1 31C166.6 29.7 167.3 28.7 168.2 27.8C169.1 26.9 170.2 26.2 171.4 25.7C172.6 25.2 174 25 175.5 25C177 25 178.4 25.2 179.6 25.7C180.9 26.2 181.9 26.8 182.8 27.7C183.7 28.6 184.4 29.7 184.9 30.9C185.4 32.2 185.7 33.5 185.7 35.1C185.7 36.6 185.4 38 184.9 39.2C184.4 40.4 183.7 41.5 182.8 42.4C181.9 43.3 180.8 44 179.6 44.5C178.3 45 177 45.3 175.5 45.3C174 45.3 172.6 45.1 171.4 44.6C170.2 44.1 169.1 43.4 168.2 42.6C167.3 41.7 166.6 40.7 166.1 39.4C165.5 38.1 165.3 36.7 165.3 35.2ZM168.9 35C168.9 36 169.1 37 169.4 37.9C169.7 38.8 170.2 39.5 170.7 40.2C171.3 40.8 172 41.3 172.8 41.7C173.6 42.1 174.5 42.2 175.5 42.2C176.5 42.2 177.4 42 178.2 41.7C179 41.3 179.7 40.8 180.3 40.2C180.9 39.6 181.3 38.8 181.6 37.9C181.9 37 182.1 36.1 182.1 35C182.1 34 181.9 33.1 181.6 32.3C181.3 31.5 180.8 30.7 180.3 30.1C179.7 29.5 179 29 178.2 28.6C177.4 28.2 176.5 28.1 175.5 28.1C174.5 28.1 173.6 28.3 172.8 28.6C172 29 171.3 29.4 170.7 30.1C170.1 30.7 169.7 31.5 169.4 32.3C169 33.1 168.9 34 168.9 35Z" fill="#BB9366"/>
<path d="M194.5 25.5H199.7L204.8 39L210 25.5H215.2V44.8H211.9V28.8H211.8L205.9 44.8H203.5L197.6 28.8H197.5V44.8H194.2V25.5H194.5Z" fill="#BB9366"/>
<path d="M225.1 25.5H231.6C232.5 25.5 233.4 25.6 234.3 25.8C235.2 26 235.9 26.3 236.6 26.7C237.3 27.1 237.8 27.7 238.2 28.4C238.6 29.1 238.8 30 238.8 31.1C238.8 32.3 238.6 33.3 238.2 34C237.8 34.7 237.2 35.3 236.5 35.7C235.8 36.1 235 36.4 234 36.5C233.1 36.6 232.1 36.7 231.1 36.7H228.7V44.7H225.3V25.5H225.1ZM230.6 33.9C231.1 33.9 231.6 33.9 232.1 33.8C232.6 33.8 233.1 33.7 233.6 33.5C234 33.3 234.4 33 234.7 32.7C235 32.3 235.1 31.8 235.1 31.2C235.1 30.6 235 30.1 234.7 29.8C234.4 29.4 234.1 29.2 233.7 29C233.3 28.8 232.9 28.7 232.4 28.6C231.9 28.5 231.4 28.5 231 28.5H228.6V33.9H230.6Z" fill="#BB9366"/>
<path d="M251.4 25.5H254.4L262.7 44.8H258.8L257 40.4H248.6L246.9 44.8H243.1L251.4 25.5ZM255.7 37.4L252.7 29.6L249.7 37.4H255.7Z" fill="#BB9366"/>
<path d="M270.2 25.5H274.7L284 39.8H284.1V25.5H287.5V44.8H283.1L273.6 30H273.5V44.8H270.2V25.5Z" fill="#BB9366"/>
<path d="M302.1 36.5L294.9 25.5H299.2L303.9 33.2L308.7 25.5H312.8L305.6 36.5V44.7H302.2V36.5H302.1Z" fill="#BB9366"/>
<path d="M143.6 53.4H141.2V52.2H147.4V53.4H145V61H143.6V53.4Z" fill="#E5E5E5"/>
<path d="M160.7 59.1H157.3L156.6 61.1H155.2L158.4 52.3H159.5L162.7 61.1H161.3L160.7 59.1ZM160.3 57.9L159 54L157.7 57.9H160.3Z" fill="#E5E5E5"/>
<path d="M175 56.2H178.2V58C178.2 58.9 177.9 59.6 177.3 60.2C176.7 60.8 176 61.1 175.1 61.1C174.4 61.1 173.8 60.9 173.4 60.6C172.9 60.3 172.6 59.9 172.4 59.5C172.3 59.4 172.3 59.2 172.2 59.1C172.2 59 172.1 58.8 172.1 58.6C172 58.2 172 57.6 172 56.5C172 55.5 172 54.8 172.1 54.4C172.2 54.1 172.3 53.8 172.4 53.6C172.6 53.2 173 52.8 173.4 52.5C173.9 52.2 174.4 52 175.1 52C176 52 176.6 52.3 177.2 52.8C177.7 53.3 178.1 53.9 178.2 54.7H176.8C176.7 54.3 176.5 54 176.2 53.8C175.9 53.6 175.5 53.4 175.1 53.4C174.8 53.4 174.5 53.5 174.3 53.6C174.1 53.7 173.9 53.9 173.7 54.1C173.5 54.3 173.4 54.5 173.4 54.8C173.3 55.1 173.3 55.7 173.3 56.6C173.3 57.5 173.3 58.1 173.4 58.4C173.5 58.7 173.6 59 173.7 59.1C173.8 59.3 174 59.4 174.3 59.5C174.5 59.6 174.8 59.7 175.1 59.7C175.6 59.7 176.1 59.5 176.4 59.2C176.7 58.9 176.9 58.4 176.9 57.9V57.4H175.1V56.2H175Z" fill="#E5E5E5"/>
<path d="M191.4 52.2H192.7V59.8H197V61.1H191.4V52.2Z" fill="#E5E5E5"/>
<path d="M207 52.2H208.3V61H207V52.2Z" fill="#E5E5E5"/>
<path d="M218.9 52.2H220.2L224.2 58.5V52.2H225.5V61H224.2L220.2 54.7V61H218.9V52.2Z" fill="#E5E5E5"/>
<path d="M236.1 52.2H241.7V53.5H237.4V56H241.1V57.2H237.4V59.8H241.7V61.1H236.1V52.2Z" fill="#E5E5E5"/>
<path d="M260.4 57.2H256.9V61.1H255.6V52.3H256.9V56.1H260.4V52.3H261.7V61.1H260.4V57.2Z" fill="#E5E5E5"/>
<path d="M275 52.2H280.6V53.5H276.3V56H280V57.2H276.3V59.8H280.6V61.1H275V52.2Z" fill="#E5E5E5"/>
<path d="M290.6 52.2H294.1C294.8 52.2 295.4 52.4 295.9 52.8C296.5 53.2 296.8 53.9 296.8 54.7C296.8 55.9 296.2 56.7 295.1 57.2L297.2 61.1H295.6L293.8 57.3H292.1V61.1H290.8V52.2H290.6ZM291.9 56.1H293.9C294.4 56.1 294.8 55.9 295 55.7C295.2 55.4 295.4 55.1 295.4 54.7C295.4 54.2 295.2 53.9 295 53.7C294.8 53.5 294.4 53.4 294 53.4H291.9V56.1Z" fill="#E5E5E5"/>
<path d="M306.8 52.2H312.4V53.5H308.2V56H311.9V57.2H308.2V59.8H312.5V61.1H306.9V52.2H306.8Z" fill="#E5E5E5"/>
</svg>
